<svg width="351" height="60" viewBox="0 0 351 60" fill="none" xmlns="http://www.w3.org/2000/svg">
<rect width="100" height="60" rx="12" fill="white"/>
<path d="M30 24.9219V24.5312C30 19.0625 33.9062 14.375 39.2969 13.5156C42.8125 12.8906 46.4844 14.0625 49.0625 16.6406L50 17.5L50.8594 16.6406C53.4375 14.0625 57.1094 12.8906 60.625 13.5156C66.0156 14.375 70 19.0625 70 24.5312V24.9219C70 28.2031 68.5938 31.3281 66.25 33.5156L52.1094 46.7188C51.5625 47.2656 50.7812 47.5 50 47.5C49.1406 47.5 48.3594 47.2656 47.8125 46.7188L33.6719 33.5156C31.3281 31.3281 30 28.2031 30 24.9219Z" fill="#0000FF"/>
<path d="M122.875 45V15.9091H130.773V27.2727H141.227V15.9091H149.125V45H141.227V33.6364H130.773V45H122.875ZM163.443 45.3977C161.114 45.3977 159.106 44.9527 157.42 44.0625C155.744 43.1629 154.452 41.875 153.543 40.1989C152.643 38.5133 152.193 36.4962 152.193 34.1477C152.193 31.8939 152.648 29.9242 153.557 28.2386C154.466 26.553 155.749 25.2415 157.406 24.304C159.063 23.3665 161.019 22.8977 163.273 22.8977C164.92 22.8977 166.412 23.1534 167.747 23.6648C169.082 24.1761 170.223 24.9195 171.17 25.8949C172.117 26.8608 172.847 28.035 173.358 29.4176C173.869 30.8002 174.125 32.358 174.125 34.0909V35.9091H154.636V31.5909H166.909C166.9 30.9659 166.739 30.4167 166.426 29.9432C166.123 29.4602 165.711 29.0862 165.19 28.821C164.679 28.5464 164.097 28.4091 163.443 28.4091C162.809 28.4091 162.226 28.5464 161.696 28.821C161.166 29.0862 160.74 29.4555 160.418 29.929C160.105 30.4025 159.939 30.9564 159.92 31.5909V36.25C159.92 36.9508 160.067 37.5758 160.361 38.125C160.654 38.6742 161.076 39.1051 161.625 39.4176C162.174 39.7301 162.837 39.8864 163.614 39.8864C164.153 39.8864 164.646 39.8106 165.091 39.6591C165.545 39.5076 165.934 39.2898 166.256 39.0057C166.578 38.7121 166.814 38.3617 166.966 37.9545H174.125C173.879 39.4697 173.296 40.786 172.378 41.9034C171.459 43.0114 170.242 43.8731 168.727 44.4886C167.222 45.0947 165.46 45.3977 163.443 45.3977ZM183.404 45.3409C182.012 45.3409 180.781 45.1136 179.711 44.6591C178.65 44.1951 177.817 43.4943 177.211 42.5568C176.605 41.6193 176.302 40.4261 176.302 38.9773C176.302 37.7841 176.505 36.7661 176.913 35.9233C177.32 35.071 177.888 34.375 178.617 33.8352C179.346 33.2955 180.194 32.8835 181.16 32.5994C182.135 32.3153 183.186 32.1307 184.313 32.0455C185.535 31.9508 186.515 31.8371 187.254 31.7045C188.002 31.5625 188.541 31.3684 188.873 31.1222C189.204 30.8665 189.37 30.5303 189.37 30.1136V30.0568C189.37 29.4886 189.152 29.053 188.717 28.75C188.281 28.447 187.722 28.2955 187.04 28.2955C186.292 28.2955 185.682 28.4612 185.208 28.7926C184.744 29.1146 184.465 29.6117 184.37 30.2841H177.154C177.249 28.9583 177.67 27.7367 178.418 26.6193C179.176 25.4924 180.279 24.5928 181.728 23.9205C183.177 23.2386 184.986 22.8977 187.154 22.8977C188.717 22.8977 190.118 23.0824 191.359 23.4517C192.599 23.8116 193.655 24.3182 194.526 24.9716C195.397 25.6155 196.06 26.3731 196.515 27.2443C196.979 28.1061 197.211 29.0436 197.211 30.0568V45H189.881V41.9318H189.711C189.275 42.7462 188.745 43.4044 188.12 43.9062C187.504 44.4081 186.799 44.7727 186.004 45C185.218 45.2273 184.351 45.3409 183.404 45.3409ZM185.961 40.3977C186.558 40.3977 187.116 40.2746 187.637 40.0284C188.167 39.7822 188.598 39.4271 188.93 38.9631C189.261 38.4991 189.427 37.9356 189.427 37.2727V35.4545C189.219 35.5398 188.996 35.6203 188.759 35.696C188.532 35.7718 188.286 35.8428 188.021 35.9091C187.765 35.9754 187.49 36.0369 187.197 36.0938C186.913 36.1506 186.614 36.2027 186.302 36.25C185.696 36.3447 185.199 36.5009 184.81 36.7188C184.432 36.9271 184.147 37.1875 183.958 37.5C183.778 37.803 183.688 38.1439 183.688 38.5227C183.688 39.1288 183.901 39.5928 184.327 39.9148C184.754 40.2367 185.298 40.3977 185.961 40.3977ZM208.798 15.9091V45H200.957V15.9091H208.798ZM225.805 23.1818V28.8636H211.43V23.1818H225.805ZM214.214 17.9545H222.055V37.983C222.055 38.286 222.107 38.5417 222.211 38.75C222.315 38.9489 222.476 39.1004 222.694 39.2045C222.912 39.2992 223.191 39.3466 223.532 39.3466C223.769 39.3466 224.043 39.3182 224.356 39.2614C224.678 39.2045 224.915 39.1572 225.066 39.1193L226.202 44.6307C225.852 44.7348 225.35 44.8627 224.697 45.0142C224.053 45.1657 223.286 45.2652 222.396 45.3125C220.596 45.4072 219.086 45.2225 217.864 44.7585C216.643 44.285 215.724 43.5417 215.109 42.5284C214.493 41.5152 214.195 40.2462 214.214 38.7216V17.9545ZM237.314 32.7273V45H229.473V15.9091H237.03V27.3295H237.257C237.75 25.9375 238.569 24.8532 239.714 24.0767C240.86 23.2907 242.238 22.8977 243.848 22.8977C245.392 22.8977 246.732 23.2481 247.868 23.9489C249.014 24.6496 249.899 25.6155 250.524 26.8466C251.159 28.0777 251.471 29.4886 251.462 31.0795V45H243.621V32.7273C243.63 31.6477 243.36 30.8002 242.811 30.1847C242.271 29.5691 241.5 29.2614 240.496 29.2614C239.861 29.2614 239.303 29.4034 238.82 29.6875C238.346 29.9621 237.977 30.3598 237.712 30.8807C237.456 31.392 237.323 32.0076 237.314 32.7273ZM282.378 26.8182H274.366C274.31 26.1553 274.158 25.554 273.912 25.0142C273.675 24.4744 273.344 24.0104 272.918 23.6222C272.501 23.2244 271.994 22.9214 271.398 22.7131C270.801 22.4953 270.124 22.3864 269.366 22.3864C268.041 22.3864 266.919 22.7083 266 23.3523C265.091 23.9962 264.4 24.9195 263.926 26.1222C263.462 27.3248 263.23 28.7689 263.23 30.4545C263.23 32.2348 263.467 33.7263 263.94 34.929C264.423 36.1222 265.119 37.0218 266.028 37.6278C266.938 38.2244 268.031 38.5227 269.31 38.5227C270.039 38.5227 270.692 38.4328 271.27 38.2528C271.848 38.0634 272.349 37.7936 272.776 37.4432C273.202 37.0928 273.547 36.6714 273.812 36.179C274.087 35.6771 274.272 35.1136 274.366 34.4886L282.378 34.5455C282.283 35.7765 281.938 37.0312 281.341 38.3097C280.744 39.5786 279.897 40.7528 278.798 41.8324C277.709 42.9025 276.36 43.7642 274.75 44.4176C273.14 45.071 271.27 45.3977 269.139 45.3977C266.469 45.3977 264.073 44.8248 261.952 43.679C259.84 42.5331 258.169 40.8475 256.938 38.6222C255.716 36.3968 255.105 33.6742 255.105 30.4545C255.105 27.2159 255.73 24.4886 256.98 22.2727C258.23 20.0473 259.916 18.3665 262.037 17.2301C264.158 16.0843 266.526 15.5114 269.139 15.5114C270.976 15.5114 272.667 15.7623 274.21 16.2642C275.754 16.7661 277.108 17.5 278.273 18.4659C279.438 19.4223 280.375 20.6013 281.085 22.0028C281.795 23.4044 282.226 25.0095 282.378 26.8182ZM300.222 35.4545V23.1818H308.063V45H300.62V40.8523H300.393C299.919 42.2443 299.091 43.3333 297.907 44.1193C296.723 44.8958 295.317 45.2841 293.688 45.2841C292.164 45.2841 290.828 44.9337 289.683 44.233C288.546 43.5322 287.661 42.5663 287.026 41.3352C286.401 40.1042 286.084 38.6932 286.075 37.1023V23.1818H293.915V35.4545C293.925 36.5341 294.2 37.3816 294.739 37.9972C295.289 38.6127 296.056 38.9205 297.04 38.9205C297.694 38.9205 298.257 38.7831 298.731 38.5085C299.214 38.2244 299.583 37.8267 299.839 37.3153C300.104 36.7945 300.232 36.1742 300.222 35.4545ZM312.051 45V23.1818H319.665V27.3295H319.892C320.29 25.7955 320.92 24.6733 321.781 23.9631C322.652 23.2528 323.67 22.8977 324.835 22.8977C325.176 22.8977 325.512 22.9261 325.844 22.983C326.185 23.0303 326.511 23.1013 326.824 23.196V29.8864C326.436 29.7538 325.957 29.6544 325.389 29.5881C324.821 29.5218 324.333 29.4886 323.926 29.4886C323.159 29.4886 322.468 29.6638 321.852 30.0142C321.246 30.3551 320.768 30.8381 320.418 31.4631C320.067 32.0786 319.892 32.803 319.892 33.6364V45H312.051ZM338.599 45.3977C336.27 45.3977 334.262 44.9527 332.577 44.0625C330.901 43.1629 329.608 41.875 328.699 40.1989C327.799 38.5133 327.349 36.4962 327.349 34.1477C327.349 31.8939 327.804 29.9242 328.713 28.2386C329.622 26.553 330.905 25.2415 332.562 24.304C334.22 23.3665 336.175 22.8977 338.429 22.8977C340.077 22.8977 341.568 23.1534 342.903 23.6648C344.239 24.1761 345.38 24.9195 346.327 25.8949C347.274 26.8608 348.003 28.035 348.514 29.4176C349.026 30.8002 349.281 32.358 349.281 34.0909V35.9091H329.793V31.5909H342.065C342.056 30.9659 341.895 30.4167 341.582 29.9432C341.279 29.4602 340.867 29.0862 340.347 28.821C339.835 28.5464 339.253 28.4091 338.599 28.4091C337.965 28.4091 337.383 28.5464 336.852 28.821C336.322 29.0862 335.896 29.4555 335.574 29.929C335.261 30.4025 335.096 30.9564 335.077 31.5909V36.25C335.077 36.9508 335.223 37.5758 335.517 38.125C335.811 38.6742 336.232 39.1051 336.781 39.4176C337.33 39.7301 337.993 39.8864 338.77 39.8864C339.31 39.8864 339.802 39.8106 340.247 39.6591C340.702 39.5076 341.09 39.2898 341.412 39.0057C341.734 38.7121 341.971 38.3617 342.122 37.9545H349.281C349.035 39.4697 348.453 40.786 347.534 41.9034C346.616 43.0114 345.399 43.8731 343.884 44.4886C342.378 45.0947 340.616 45.3977 338.599 45.3977Z" fill="white"/>
</svg>
